<?xml version="1.0" ?>
<mxfile host="app.diagrams.net">
  <diagram name="Swimlane-Fixed">
    <mxGraphModel dx="1500" dy="800" grid="1" gridSize="10" page="1" pageScale="1" pageWidth="827" pageHeight="1169">
      <root>
        <mxCell id="0"/>
        <mxCell id="1" parent="0"/>
        <mxCell id="start" value="Start" style="ellipse" vertex="1" parent="1">
          <mxGeometry x="40" y="40" width="180" height="60" as_="geometry"/>
        </mxCell>
        <mxCell id="access" value="Access Portal" style="rounded=1;whiteSpace=wrap;html=1;" vertex="1" parent="1">
          <mxGeometry x="40" y="100" width="180" height="60" as_="geometry"/>
        </mxCell>
        <mxCell id="has_account" value="Already Have an Account?" style="rhombus" vertex="1" parent="1">
          <mxGeometry x="40" y="160" width="180" height="60" as_="geometry"/>
        </mxCell>
        <mxCell id="register" value="Homeowner Registration" style="rounded=1;whiteSpace=wrap;html=1;" vertex="1" parent="1">
          <mxGeometry x="40" y="230" width="180" height="60" as_="geometry"/>
        </mxCell>
        <mxCell id="add_info" value="Add Home Details
&amp; Upload Proof" style="rounded=1;whiteSpace=wrap;html=1;" vertex="1" parent="1">
          <mxGeometry x="40" y="300" width="180" height="60" as_="geometry"/>
        </mxCell>
        <mxCell id="submit_request" value="Submit Info" style="rounded=1;whiteSpace=wrap;html=1;" vertex="1" parent="1">
          <mxGeometry x="40" y="370" width="180" height="60" as_="geometry"/>
        </mxCell>
        <mxCell id="login" value="Log In" style="rounded=1;whiteSpace=wrap;html=1;" vertex="1" parent="1">
          <mxGeometry x="250" y="160" width="180" height="60" as_="geometry"/>
        </mxCell>
        <mxCell id="check_cred" value="Credential is Valid?" style="rhombus" vertex="1" parent="1">
          <mxGeometry x="250" y="230" width="180" height="60" as_="geometry"/>
        </mxCell>
        <mxCell id="dashboard" value="Homeowner Dashboard" style="rounded=1;whiteSpace=wrap;html=1;" vertex="1" parent="1">
          <mxGeometry x="250" y="300" width="180" height="60" as_="geometry"/>
        </mxCell>
        <mxCell id="hoa" value="HOA Association" style="rounded=1;whiteSpace=wrap;html=1;" vertex="1" parent="1">
          <mxGeometry x="250" y="370" width="180" height="60" as_="geometry"/>
        </mxCell>
        <mxCell id="dues" value="HOA Dues" style="rounded=1;whiteSpace=wrap;html=1;" vertex="1" parent="1">
          <mxGeometry x="250" y="440" width="180" height="60" as_="geometry"/>
        </mxCell>
        <mxCell id="garbage" value="Garbage Collection" style="rounded=1;whiteSpace=wrap;html=1;" vertex="1" parent="1">
          <mxGeometry x="250" y="510" width="180" height="60" as_="geometry"/>
        </mxCell>
        <mxCell id="pay_hoa" value="Make Payment" style="rounded=1;whiteSpace=wrap;html=1;" vertex="1" parent="1">
          <mxGeometry x="430" y="370" width="180" height="60" as_="geometry"/>
        </mxCell>
        <mxCell id="pay_dues" value="Make Payment" style="rounded=1;whiteSpace=wrap;html=1;" vertex="1" parent="1">
          <mxGeometry x="430" y="440" width="180" height="60" as_="geometry"/>
        </mxCell>
        <mxCell id="pay_garbage" value="Make Payment" style="rounded=1;whiteSpace=wrap;html=1;" vertex="1" parent="1">
          <mxGeometry x="430" y="510" width="180" height="60" as_="geometry"/>
        </mxCell>
        <mxCell id="success" value="Receive Payment Receipt" style="rounded=1;whiteSpace=wrap;html=1;" vertex="1" parent="1">
          <mxGeometry x="340" y="580" width="180" height="60" as_="geometry"/>
        </mxCell>
        <mxCell id="admin_notice" value="Send Approval Notice" style="rounded=1;whiteSpace=wrap;html=1;" vertex="1" parent="1">
          <mxGeometry x="600" y="300" width="180" height="60" as_="geometry"/>
        </mxCell>
        <mxCell id="view_announcements" value="View Announcements
&amp; Reminders" style="rounded=1;whiteSpace=wrap;html=1;" vertex="1" parent="1">
          <mxGeometry x="600" y="370" width="180" height="60" as_="geometry"/>
        </mxCell>
        <mxCell id="e0" edge="1" source="start" target="access" parent="1" style="endArrow=block;">
          <mxGeometry relative="1" as_="geometry"/>
        </mxCell>
        <mxCell id="e1" edge="1" source="access" target="has_account" parent="1" style="endArrow=block;">
          <mxGeometry relative="1" as_="geometry"/>
        </mxCell>
        <mxCell id="e2" edge="1" source="has_account" target="login" parent="1" style="endArrow=block;">
          <mxGeometry relative="1" as_="geometry"/>
        </mxCell>
        <mxCell id="e3" edge="1" source="has_account" target="register" parent="1" style="endArrow=block;">
          <mxGeometry relative="1" as_="geometry"/>
        </mxCell>
        <mxCell id="e4" edge="1" source="register" target="add_info" parent="1" style="endArrow=block;">
          <mxGeometry relative="1" as_="geometry"/>
        </mxCell>
        <mxCell id="e5" edge="1" source="add_info" target="submit_request" parent="1" style="endArrow=block;">
          <mxGeometry relative="1" as_="geometry"/>
        </mxCell>
        <mxCell id="e6" edge="1" source="submit_request" target="admin_notice" parent="1" style="endArrow=block;">
          <mxGeometry relative="1" as_="geometry"/>
        </mxCell>
        <mxCell id="e7" edge="1" source="login" target="check_cred" parent="1" style="endArrow=block;">
          <mxGeometry relative="1" as_="geometry"/>
        </mxCell>
        <mxCell id="e8" edge="1" source="check_cred" target="dashboard" parent="1" style="endArrow=block;">
          <mxGeometry relative="1" as_="geometry"/>
        </mxCell>
        <mxCell id="e9" edge="1" source="dashboard" target="hoa" parent="1" style="endArrow=block;">
          <mxGeometry relative="1" as_="geometry"/>
        </mxCell>
        <mxCell id="e10" edge="1" source="dashboard" target="dues" parent="1" style="endArrow=block;">
          <mxGeometry relative="1" as_="geometry"/>
        </mxCell>
        <mxCell id="e11" edge="1" source="dashboard" target="garbage" parent="1" style="endArrow=block;">
          <mxGeometry relative="1" as_="geometry"/>
        </mxCell>
        <mxCell id="e12" edge="1" source="hoa" target="pay_hoa" parent="1" style="endArrow=block;">
          <mxGeometry relative="1" as_="geometry"/>
        </mxCell>
        <mxCell id="e13" edge="1" source="dues" target="pay_dues" parent="1" style="endArrow=block;">
          <mxGeometry relative="1" as_="geometry"/>
        </mxCell>
        <mxCell id="e14" edge="1" source="garbage" target="pay_garbage" parent="1" style="endArrow=block;">
          <mxGeometry relative="1" as_="geometry"/>
        </mxCell>
        <mxCell id="e15" edge="1" source="pay_hoa" target="success" parent="1" style="endArrow=block;">
          <mxGeometry relative="1" as_="geometry"/>
        </mxCell>
        <mxCell id="e16" edge="1" source="pay_dues" target="success" parent="1" style="endArrow=block;">
          <mxGeometry relative="1" as_="geometry"/>
        </mxCell>
        <mxCell id="e17" edge="1" source="pay_garbage" target="success" parent="1" style="endArrow=block;">
          <mxGeometry relative="1" as_="geometry"/>
        </mxCell>
        <mxCell id="e18" edge="1" source="dashboard" target="view_announcements" parent="1" style="endArrow=block;">
          <mxGeometry relative="1" as_="geometry"/>
        </mxCell>
      </root>
    </mxGraphModel>
  </diagram>
</mxfile>
